<svg width="27" height="27" fill="none" xmlns="http://www.w3.org/2000/svg"><g filter="url(#a)" stroke="#000" shape-rendering="crispEdges"><path d="m18.05 13.04-.27.35.31.31 3.37 3.36-.72.77-3.34-3.33-.32-.32-.34.28a7.42 7.42 0 0 1-4.61 1.59 7.53 7.53 0 0 1-7.52-7.5C4.6 4.42 8 .95 12.13.95a7.53 7.53 0 0 1 7.52 7.5c0 1.78-.65 3.37-1.6 4.6ZM5.61 8.55a6.53 6.53 0 0 0 13.04 0 6.53 6.53 0 0 0-13.04 0Z"/><path d="m18.05 13.04-.27.35.31.31 3.37 3.36-.72.77-3.34-3.33-.32-.32-.34.28a7.42 7.42 0 0 1-4.61 1.59 7.53 7.53 0 0 1-7.52-7.5C4.6 4.42 8 .95 12.13.95a7.53 7.53 0 0 1 7.52 7.5c0 1.78-.65 3.37-1.6 4.6ZM5.61 8.55a6.53 6.53 0 0 0 13.04 0 6.53 6.53 0 0 0-13.04 0Z" stroke-opacity=".2"/></g><defs><filter id="a" x=".11" y=".45" width="26.05" height="26.1" filterUnits="userSpaceOnUse" color-interpolation-filters="sRGB"><feFlood flood-opacity="0" result="BackgroundImageFix"/><feColorMatrix in="SourceAlpha" values="0 0 0 0 0 0 0 0 0 0 0 0 0 0 0 0 0 0 127 0" result="hardAlpha"/><feOffset dy="4"/><feGaussianBlur stdDeviation="2"/><feComposite in2="hardAlpha" operator="out"/><feColorMatrix values="0 0 0 0 0 0 0 0 0 0 0 0 0 0 0 0 0 0 0.25 0"/><feBlend in2="BackgroundImageFix" result="effect1_dropShadow_39844_220"/><feBlend in="SourceGraphic" in2="effect1_dropShadow_39844_220" result="shape"/></filter></defs></svg>